<?xml version="1.0" encoding="UTF-8" standalone="no"?>
<!-- Created with Inkscape (http://www.inkscape.org/) -->

<svg
   xmlns:dc="http://purl.org/dc/elements/1.1/"
   xmlns:cc="http://creativecommons.org/ns#"
   xmlns:rdf="http://www.w3.org/1999/02/22-rdf-syntax-ns#"
   xmlns:svg="http://www.w3.org/2000/svg"
   xmlns="http://www.w3.org/2000/svg"
   version="1.1"
   width="100%"
   height="100%"
   viewBox="0 0 290 127"
   id="Layer_1"
   xml:space="preserve"><metadata
   id="metadata25"><rdf:RDF><cc:Work
       rdf:about=""><dc:format>image/svg+xml</dc:format><dc:type
         rdf:resource="http://purl.org/dc/dcmitype/StillImage" /><dc:title></dc:title></cc:Work></rdf:RDF></metadata><defs
   id="defs23" />
<g
   id="g3">
	<path
   d="M 43.1,14.7 C 43.1,12.1 41.4,8.4 36.2,8.4 21.4,8.4 10,31 10,49.4 c 0,14 4.6,27.3 17.6,27.3 9.6,0 15.4,-6.6 15.7,-6.8 2.9,-4.8 8.4,3.2 5.7,5.9 -0.3,0.3 -8.6,9.3 -22.2,9.3 C 10.7,85.1 1,71.1 1,49.4 1,27.4 15.3,0.2 37.7,0.2 45.8,0.1 52,5.2 52,15 52,28.9 34.7,41.5 22.2,41.5 c -2.7,0 -5,-1.7 -5,-5.4 0,-1.6 0.5,-3.6 1.2,-3.6 0.8,0 1,1.1 4.3,1.1 8.4,0 20.4,-9.4 20.4,-18.9 z"
   id="path5"
   style="fill:#ff6733;fill-opacity:1" />
	<path
   d="m 66.9,70.8 c 0,-7.2 2,-15.2 5.6,-24.9 H 64 62.8 C 62.7,50.3 62,60.1 60,66.6 c -1.5,4.7 -7.3,0.7 -6.3,-3.2 1.2,-4.5 1.7,-13.9 1.8,-19.6 -2.8,-1.6 -4.8,-3.9 -4.8,-7.2 0,-3.2 2.7,-5.2 5.6,-5.2 2.7,0 5.9,1.4 7.1,6 3.7,0.5 4.8,0.5 6,0.5 h 5.9 c 1.4,0 5.9,3.7 5.4,6.3 0,1.4 -5.1,14.6 -5.1,25.9 0,3.2 1.5,6.1 4.5,6.1 5.2,0 7.1,-7.2 8.1,-12.2 0.5,-2.4 1.6,-3.4 2.7,-3.4 1.8,0 3.9,2.5 3.9,4.6 0,0.3 -0.1,0.6 -0.1,0.8 -2,7.4 -6.4,17.6 -16.1,17.6 -5.4,0 -11.7,-2.9 -11.7,-12.8 z"
   id="path7"
   style="fill:#ff6733;fill-opacity:1" />
	<path
   d="m 127.9,64 c 0.5,-2.4 1.6,-3.4 2.7,-3.4 1.8,0 3.9,2.5 3.9,4.6 0,0.1 0,0.3 -0.1,0.8 -1.9,7.4 -6.4,17.6 -16.1,17.6 -3.9,0 -7,-1.9 -8.7,-4.6 -2.3,2.6 -5.4,4.6 -9.7,4.6 -8.8,0 -13.4,-7.4 -13.4,-17 0,-18.8 13.1,-30.3 26.8,-30.3 3,0 5.2,1.8 5.2,4.7 0,1.9 -0.3,2.6 -1.5,2.6 -1,0 -2.1,-0.2 -3.3,-0.2 -8.6,0 -18.6,7.3 -18.6,23.5 0,5.9 2.5,9.2 6.4,9.2 3,0 5.1,-2.7 6.3,-5.9 V 53 c 0,-2.1 -0.5,-2.8 -0.5,-3.6 0,-1.1 1.4,-1.9 2.9,-1.9 3.7,0 6.1,2.3 6.1,5 V 71 c 0,2.5 1.1,5.2 3.8,5.2 4.8,0 6.8,-7.2 7.8,-12.2 z"
   id="path9"
   style="fill:#ff6733;fill-opacity:1" />
	<path
   d="m 128.4,27.9 v -19 c 0,-3.3 -1.1,-3.5 -1.1,-4.3 0,-0.8 2,-1.2 3.6,-1.2 3.7,0 6.1,2.3 6.1,5 V 28 c 6.9,0 14.8,-0.1 22.4,-0.5 3.2,-3.4 2.1,7.4 -0.8,7.5 -9,0.2 -15.7,0.2 -21.6,0.2 V 71 c 0,3.6 1.5,5.2 3.8,5.2 4.5,0 6.5,-7.2 7.5,-12.2 0.5,-2.4 1.6,-3.4 2.7,-3.4 1.8,0 3.9,2.5 3.9,4.6 0,0.1 0,0.3 -0.1,0.8 -1.9,7.4 -6.4,17.6 -16.1,17.6 -6.1,0 -10.4,-3.6 -10.4,-12.5 V 35.3 c -5,0 -7.8,-0.2 -7.8,-0.2 -3.6,0 -5.6,-7.5 -2.4,-7.5 0.1,-0.1 4.2,0.1 10.3,0.3 z"
   id="path11"
   style="fill:#ff6733;fill-opacity:1" />
	<path
   d="m 158,69.2 c 1.6,3.8 4.6,7 10.5,7 8.8,0 12.4,-7.3 13.7,-14.2 1,-5.1 7.3,-2.8 6.9,1.1 -0.8,6.9 -5.3,20.5 -21.9,20.5 -10.2,0 -19.9,-8.2 -19.9,-22.3 0,-14.3 8.6,-25 17.2,-25 6.3,0 10.1,4.6 10.1,11.4 0.1,8.3 -5.7,18.2 -16.6,21.5 z M 156.7,63 c 5.6,-2.6 9.2,-8.4 9.2,-15.2 0,-2.5 -0.9,-3.9 -2.4,-3.9 -5.5,0 -7.2,12.4 -7,17.1 0,0.6 0.2,1.3 0.2,2 z"
   id="path13"
   style="fill:#ff6733;fill-opacity:1" />
	<path
   d="m 203.4,60.6 c 1.8,0 3.9,2.5 3.9,4.6 0,0.1 0,0.7 -0.1,1.1 -3.8,13.1 -10.4,19.7 -16.4,25 v 19.5 c 0,11.8 -6,16 -11.7,16 -6.3,0 -10.8,-5.7 -10.8,-13 0,-11.4 6.5,-17.1 14,-23.7 V 42.9 c 0,-2.1 -0.4,-2.8 -0.4,-3.6 0,-1.1 1.4,-1.9 2.9,-1.9 3.7,0 6.1,2.3 6.1,5 v 39.5 c 4.1,-4.5 7.7,-10.1 9.9,-17.9 0.6,-2.4 1.5,-3.4 2.6,-3.4 z m -21.2,50.3 V 98.8 c -3.6,3.7 -6.1,8 -6.1,14.8 0,3.5 1.1,6.2 2.9,6.2 3.7,0 3.2,-6.8 3.2,-8.9 z m 4.3,-98.4 c 3.7,0 6.9,2.9 6.9,6.9 0,3.7 -3.2,6.9 -6.9,6.9 -3.8,0 -6.9,-3.2 -6.9,-6.9 0,-3.9 3.1,-6.9 6.9,-6.9 z"
   id="path15"
   style="fill:#ff6733;fill-opacity:1" />
	<path
   d="m 248.8,65.1 c -1.4,6.1 -6,11.2 -13.6,11.2 -2,0 -3.8,-0.2 -5.5,-0.8 -2.8,4.8 -7.1,8.1 -13.5,8.1 -11.4,0 -16.4,-9.7 -16.4,-21 0,-16.6 9,-26.6 11.5,-26.6 2.9,0 5.2,6 2.3,7.9 -1.8,2.7 -5.2,6.9 -5.2,18 0,9.5 3.7,14.2 8.1,14.2 3.2,0 5.2,-1.7 6.6,-4.3 -5.3,-4.5 -8.1,-11.9 -8.1,-20 0,-7.1 3,-13.2 9.1,-13.2 5.3,0 9.6,8 9.6,18.9 0,4.2 -0.4,8.3 -1.6,12.2 0.8,0.2 1.5,0.2 2.3,0.2 4.8,0 7.4,-3.7 8.1,-8.1 0.3,-2.5 7.8,-3 6.3,3.3 z m -23.7,-0.5 c 0.2,-1.8 0.3,-3.5 0.3,-5.2 0,-7.7 -0.3,-13.3 -2.7,-13.3 -1.2,0 -1.9,1.8 -1.9,5.3 0.1,5.1 1.8,9.8 4.3,13.2 z"
   id="path17"
   style="fill:#ff6733;fill-opacity:1" />
	<path
   d="m 285.1,60.6 c 1.8,0 3.9,2.5 3.9,4.6 0,0.1 0,0.7 -0.1,1.1 -3.8,13.1 -10.4,19.7 -16.4,25 v 19.5 c 0,11.8 -6,16 -11.7,16 -6.3,0 -10.8,-5.7 -10.8,-13 0,-11.4 6.5,-17.1 14,-23.7 V 75.9 c -2.7,4.5 -6.2,7.8 -11,7.8 -7.5,0 -11.9,-6.4 -11.9,-16.2 0,-11.9 4.1,-25.3 4.1,-25.3 0.8,-1.9 0,-4.2 6,-4.2 5.5,0 2.3,4.5 1.8,6.2 -2,8.3 -3.3,13.3 -3.3,22.8 0,6.1 1.9,9.3 5.2,9.3 4.5,0 7.9,-7.3 9.2,-15.2 V 42.9 c 0,-2.1 -0.4,-2.8 -0.4,-3.6 0,-1.1 1.4,-1.9 2.9,-1.9 3.7,0 6.1,2.3 6.1,5 v 39.5 c 4.1,-4.5 7.7,-10.1 9.9,-17.9 0.4,-2.4 1.3,-3.4 2.5,-3.4 z m -21.2,50.3 V 98.8 c -3.6,3.7 -6.1,8 -6.1,14.8 0,3.5 1.1,6.2 2.9,6.2 3.6,0 3.2,-6.8 3.2,-8.9 z"
   id="path19"
   style="fill:#ff6733;fill-opacity:1" />
</g>
</svg>