<svg xmlns="http://www.w3.org/2000/svg" viewBox="0 0 1034.157 400">
	<path fill="#07d0d6" d="M1024.245 42.914c-6.714-1.363-13.216 2.978-14.568 9.67-.016.074-.026.142-.042.216-1.763 8.733-3.482 17.536-5.16 26.316-7.83 37.95-21.104 84.042-57.174 87.157-9.254.794-12.773-2.152-14.82-4.81-12.337-16.02-2.046-67.378 9.196-98.73 2.305-6.424-1.03-13.5-7.455-15.81-5.565-2-11.637.247-14.656 5.077l-3.488 3.015C901.43 67.68 882.22 84.288 862.528 95.88c-2.452-4.962-5.42-9.524-8.887-13.533-13.283-15.362-32.896-22.08-53.805-18.44-15.315 2.662-27.458 14.268-29.525 28.215-.9 6.07-.242 11.012 1.352 15.137-2.025 1.46-3.86 3.066-5.566 4.766-1.168.42-2.283 1.026-3.32 1.825-13.43 10.355-24.19 16.39-33.03 12.15-6.55-3.142-7.596-8.777-7.79-26.512-.017-1.625-.032-3.267-.068-4.91-.132-6.738-5.64-12.115-12.354-12.115-.084 0-.163 0-.247.005-.09 0-.174.01-.264.016-5.592.084-10.622 3.977-11.88 9.686-4.472 20.282-9.296 40.885-13.963 60.803-.474 2.02-.947 4.072-1.426 6.098-.31.7-.568 1.438-.752 2.21-2.71 11.397-14.873 29.9-26.563 40.407-16.195 14.552-38.203 22.023-56.396 19.77 11.78-10.858 22.086-23.18 29.34-35.654 4.71-8.086 19.362-36.217 10.245-58.646-5.315-13.068-15.874-21.67-29.742-24.233-16.89-3.115-36.528 3.693-48.903 16.94-16.79 17.99-25.564 47.72-20.855 70.695 2.683 13.095 7.865 24.29 15.2 33.16-4.257 2.347-8.503 4.356-12.65 5.935-6.065 2.305-21.333 6.556-32.12-3.903-12.147-11.796-8.385-36.23-6.928-43.516l.016-.062c7.576-37.65 17.436-75.44 27.748-112.642 44.79-6.355 72.74-8.823 73.314-8.87 6.803-.585 11.843-6.572 11.26-13.375s-6.546-11.833-13.374-11.26c-.542.05-24.638 2.174-63.934 7.54 1.657-5.865 3.314-11.716 4.967-17.535l2.92-10.296c1.86-6.566-1.953-13.4-8.524-15.263-6.577-1.862-13.4 1.952-15.263 8.523l-2.92 10.286c-2.642 9.312-5.293 18.698-7.94 28.116-48.244 7.224-111.72 18.398-180.378 34.95-6.635 1.6-10.717 8.276-9.118 14.91 1.363 5.667 6.424 9.47 12.006 9.47.958 0 1.93-.115 2.904-.347 62.834-15.145 121.24-25.73 167.342-32.876-9.318 34.05-18.136 68.6-25.128 103.235-2.02 6.554-3.625 13.188-5.166 19.602-3.067 12.785-5.967 24.864-11.812 35.292-4.025 7.187-13.616 16.09-22.092 17.962-3.95.873-6.082-.2-7.497-1.22-3-2.17-4.235-8.566-3.488-17.983.81-10.112 2.51-20.225 4.74-30.283 5.53-15.758 9.623-31.846 13.06-47.15 1.456-6.482-2.474-12.96-8.898-14.658-6.425-1.705-13.043 1.983-14.985 8.333-1.49 4.867-2.983 9.765-4.45 14.694-7.667-12.517-19.652-21.36-32.81-23.808-24.57-4.572-46.066 12.42-58 29.846-7.31 10.68-12.688 22.628-15.96 35.128-.633 1.095-1.11 2.284-1.396 3.578-1.363 6.22-2.326 12.28-3.258 18.14-3.225 20.267-5.77 36.26-22.292 47.962-5.382 3.81-13.752 5.64-18.43 2.083-2.883-2.19-4.846-6.83-5.13-12.123-.857-16.057 7.072-31.63 16.73-48.876 3.126-5.565 1.49-12.604-3.77-16.225-1.396-.957-4.173-2.567-10.318-6.108-8.612-4.966-30.7-17.703-36.507-22.533-1.778-3.146-4.91-5.487-8.755-6.12-6.734-1.114-13.095 3.442-14.205 10.182-4.898 29.64-10.433 58.42-24.196 84.673-10.828 20.664-31.31 36.806-54.785 43.192-20.935 5.672-41.806 2.99-58.772-7.586-19.572-12.206-34.02-34.42-38.65-59.41-4.287-23.148-.557-49.344 10.502-73.782 8.917-19.713 28.44-54.72 58.967-67.722 16.657-7.092 35.392-6.76 48.897.868 12.216 6.908 20.19 22.218 18.95 36.407-.637 7.318-4.083 16.994-16.883 21.53-6.435 2.277-9.807 9.343-7.524 15.777 2.278 6.434 9.34 9.8 15.778 7.523 19.368-6.86 31.495-22.418 33.263-42.684 2.067-23.75-10.854-48.45-31.425-60.077-20.355-11.5-46.803-12.285-70.747-2.09-38.237 16.284-61.397 57.285-71.798 80.27-13.122 29-17.484 60.42-12.286 88.483 5.872 31.692 24.512 60.06 49.87 75.876 15.143 9.438 32.452 14.258 50.45 14.258 9.18 0 18.546-1.252 27.89-3.788 29.994-8.145 56.237-28.915 70.2-55.568 12.153-23.18 18.45-47.225 23.133-71.847 8.228 5.157 17.972 10.786 25.37 15.06-8.545 16.382-15.064 33.028-14.064 51.643.68 12.722 6.098 23.833 14.863 30.494 12.905 9.796 32.507 9.133 47.67-1.6 9.16-6.503 15.49-13.932 20.008-21.803 3.925 5.367 8.812 9.618 14.558 12.5 5.624 2.842 11.97 4.263 18.53 4.263 5.82 0 11.812-1.115 17.625-3.367 9.013-3.483 17.578-9.523 26.186-18.467 3.862-4.02 7.445-8.26 10.765-12.69 2.284 6.608 6.046 11.817 11.28 15.604 7.86 5.693 17.31 7.545 27.312 5.335 16.867-3.714 31.698-18.16 38.338-30.01 1.3-2.325 2.436-4.672 3.515-7.04 1.71 2.463 3.6 4.746 5.713 6.81 9.333 9.05 21.608 13.72 34.97 13.72 7.487 0 15.316-1.473 23.155-4.45 8.17-3.114 16.536-7.48 24.712-12.764 2.44 1.157 4.982 2.188 7.623 3.052 26.506 8.733 60.235.747 85.41-19.813-2.052 10.133-3.82 20.508-5.514 30.61-1.01 6.007-2.03 12.068-3.12 18.118-30.93 4.04-62.492 8.797-90.397 22.097-15.547 7.397-27.27 18.793-32.993 32.072-5.598 12.995-5.556 27.422.116 40.616 5.508 12.816 15.615 22.918 28.463 28.453 7.48 3.21 15.73 4.798 24.175 4.798 12.6 0 25.617-3.534 37.086-10.395 15.74-9.428 28.942-24.812 38.175-44.51 7.586-16.173 12.474-33.42 16.225-50.907 2.857-.38 5.688-.77 8.492-1.168 43.12-6.114 85.83-9.65 125.562-12.554 6.808-.505 11.92-6.418 11.427-13.237-.5-6.798-6.42-11.912-13.232-11.428-40.163 2.946-83.38 6.523-127.23 12.742-.058.01-.116.01-.174.032.61-3.557 1.21-7.113 1.806-10.64 2.094-12.446 4.067-24.21 6.593-35.722 4.65-21.224 9.695-42.764 14.572-63.603 1.204-5.144 2.42-10.337 3.64-15.556 2.306 1.952 5 3.714 8.166 5.235 5.683 2.72 11.3 3.84 16.72 3.84 5.046 0 9.902-.99 14.49-2.526-1.158 14.995 2.077 29.573 7.286 38.123 10.044 16.493 28.72 26.71 47.882 26.71 2.104 0 4.214-.115 6.324-.367 23.644-2.84 42.836-19.004 52.653-44.362 6.225-16.09 7.93-33.698 5.482-49.823 13.21-7.187 25.854-16.205 37.213-25.16-5.846 27.76-8.955 62.667 5.78 81.812 5.768 7.497 16.784 16.078 36.545 14.368 14.705-1.273 26.653-6.677 36.434-14.758-2.057 9.934-4.203 19.835-6.466 29.652-1.293 5.618-2.56 12.184-3.902 19.128-6.16 31.946-15.474 80.223-39.99 90.408-9.48 3.936-20.103 3.367-29.152-1.558-8.75-4.756-14.784-13.016-16.552-22.665-1.488-8.102.216-16.1 4.678-21.928 4.22-5.514 10.48-8.776 18.108-9.407 6.803-.58 11.858-6.556 11.285-13.363-.573-6.798-6.565-11.85-13.353-11.28-14.562 1.23-27.232 7.986-35.682 19.035-8.686 11.364-12.096 26.464-9.354 41.405 3.126 17.035 13.716 31.588 29.058 39.922 8.755 4.756 18.36 7.155 28 7.155 7.592 0 15.21-1.483 22.44-4.482 36.8-15.278 47.196-69.195 54.788-108.56 1.3-6.724 2.525-13.068 3.72-18.267 7.408-32.12 13.532-64.933 19.456-96.668 1.9-10.207 3.84-20.598 5.83-31.01 1.125-5.45 2.125-10.674 3.057-15.535.72-3.75 1.404-7.324 2.078-10.654 1.35-6.686-2.98-13.21-9.668-14.562zm-623.017 168.04c-6.387 13.87-14.368 26.73-24.622 37.388-6.05 6.292-11.7 10.396-17.278 12.553-5.777 2.23-11.806 2.272-16.12.084-8.292-4.168-11.622-16.7-11.975-27.043-.636-18.572 4.798-37.26 15.305-52.602 6.53-9.543 17.84-19.834 29.536-19.834 1.178 0 2.357.106 3.535.322 7.623 1.42 14.946 8.155 18.655 17.157 3.43 8.31 4.4 18.77 2.963 31.975zm172.634-1.23c-5.587-5.944-9.443-14.005-11.517-24.127-3.114-15.226 3.346-36.686 14.71-48.86 5.656-6.055 14.537-9.85 22.387-9.85 1.357 0 2.688.11 3.956.348 5.514 1.016 9.218 4.035 11.327 9.233 3.094 7.607-.49 22.78-8.707 36.896-7.476 12.848-19.14 25.775-32.156 36.36zm66.964 124.88c-4.977 10.617-13.958 25.097-28.494 33.788-12.458 7.47-27.326 9.027-38.79 4.104-6.91-2.98-12.565-8.63-15.522-15.5-2.962-6.892-3.01-14.384-.126-21.076 3.352-7.776 10.78-14.71 20.92-19.55 22.106-10.523 48.265-15.174 74.47-18.752-3.13 12.943-7.055 25.464-12.458 36.986zM794.77 95.752c.488-3.325 4.66-6.682 9.3-7.487 2.315-.405 4.583-.605 6.788-.605 9.538 0 17.93 3.74 24.08 10.854 1.994 2.304 3.73 4.966 5.208 7.892-15.283 5.098-29.91 5.014-41.91-4.572-3.91-3.126-3.878-3.346-3.467-6.082zm46.58 65.033c-3.76 9.728-12.994 26.396-32.528 28.73-11.644 1.4-24.055-4.624-30.157-14.65-2.547-4.178-4.73-14.127-3.75-24.324.61-6.35 2.987-17.887 12.078-23.827.62-.41 1.19-.857 1.71-1.352 18.004 11.407 37.828 11.202 57.362 4.94.547 10.12-.973 20.82-4.714 30.485z"></path><path fill="#07d0d6" d="M721.817 46.697c.137 0 .473-.005.615-.01 9.518-.31 17.02-7.908 16.726-16.94-.3-8.856-7.855-15.795-17.194-15.795-.142 0-.483.005-.62.01-9.518.322-17.015 7.914-16.72 16.942.3 8.86 7.85 15.793 17.193 15.793zM498.19 301.647c-58.635 7.976-211.872 31.03-368.086 72.657-6.597 1.757-10.517 8.522-8.76 15.13 1.473 5.525 6.472 9.177 11.938 9.177 1.053 0 2.126-.136 3.188-.42 107.443-28.63 243.908-55.57 365.052-72.047 6.766-.915 11.506-7.145 10.585-13.92-.92-6.756-7.176-11.49-13.916-10.576z"></path>
</svg>
