<?xml version="1.0" encoding="UTF-8"?>
<svg width="256px" height="251px" viewBox="0 0 256 251" version="1.1" xmlns="http://www.w3.org/2000/svg" xmlns:xlink="http://www.w3.org/1999/xlink">
    <g stroke="none" stroke-width="1" fill="none" fill-rule="evenodd" opacity="0.746999547">
        <g transform="translate(-128.000000, -131.000000)" fill="#FF354E">
            <path d="M367.076315,184.913635 C349.23813,180.036304 329.837675,181.380837 313.017415,189.132309 C307.720938,191.53287 302.135959,193.073367 296.393119,193.862667 L296.393119,175.910169 C304.580068,175.033774 312.505731,172.883611 320.055795,169.454238 C334.802101,162.660813 351.834655,161.920504 367.076315,167.434718 L367.076315,184.913635 Z M367.076315,219.974895 C349.232686,215.103008 329.837675,216.44754 313.017415,224.199013 C307.720938,226.605017 302.135959,228.14007 296.393119,228.92937 L296.393119,210.982316 C304.580068,210.105921 312.505731,207.950315 320.055795,204.526385 C334.802101,197.73296 351.867316,197.123293 367.076315,202.583073 L367.076315,219.974895 Z M367.076315,255.047042 C349.23813,250.169711 329.837675,251.514244 313.017415,259.271159 C305.146186,262.836619 296.703396,264.649288 287.928555,264.649288 C279.278913,264.649288 270.602054,262.793072 262.883242,259.292933 C242.181803,249.750566 217.659061,249.723349 196.968509,259.249386 C191.579494,261.666277 185.95641,263.206774 180.191797,264.001517 L180.191797,246.04902 C188.356971,245.167181 196.315295,243.022462 203.963342,239.593089 C220.413447,232.015806 239.465521,232.070241 255.850305,239.609419 C265.795488,244.122039 276.889239,246.50627 287.928555,246.50627 C299.136618,246.50627 309.925535,244.192804 320.055795,239.593089 C334.807544,232.79422 351.867316,232.184553 367.076315,237.649777 L367.076315,255.047042 Z M367.076315,290.113746 C349.23813,285.241858 329.826788,286.591834 313.017415,294.337863 C305.146186,297.91421 296.703396,299.721435 287.928555,299.721435 C279.278913,299.721435 270.602054,297.859775 262.883242,294.359637 C242.19269,284.817269 217.642731,284.790052 196.968509,294.321533 C191.579494,296.732981 185.95641,298.273477 180.191797,299.068221 L180.191797,281.115723 C188.356971,280.239328 196.315295,278.089165 203.963342,274.659792 C220.413447,267.087953 239.465521,267.136944 255.850305,274.681566 C265.795488,279.194186 276.889239,281.578417 287.928555,281.578417 C299.136618,281.578417 309.925535,279.259507 320.055795,274.659792 C334.807544,267.860923 351.867316,267.251257 367.076315,272.71648 L367.076315,290.113746 Z M367.076315,324.984485 C349.205469,319.965625 329.690701,321.61499 313.017415,329.399123 C305.140743,332.97547 296.697952,334.788138 287.928555,334.788138 C279.284356,334.788138 270.607498,332.926479 262.92679,329.442671 C252.578792,324.614331 241.131217,322.055909 229.825172,322.055909 C218.600778,322.055909 207.196751,324.614331 196.968509,329.39368 C191.57405,331.805128 185.961853,333.416389 180.191797,334.211133 L180.191797,316.18787 C188.356971,315.306032 196.315295,313.161312 203.968785,309.731939 C220.408004,302.1601 239.476408,302.209091 255.850305,309.753713 C265.795488,314.260889 276.889239,316.64512 287.928555,316.64512 C299.136618,316.64512 309.925535,314.326211 320.055795,309.731939 C334.802101,302.93307 351.867316,302.323404 367.076315,307.788627 L367.076315,324.984485 Z M180.191797,175.915613 C188.356971,175.039218 196.315295,172.883611 203.963342,169.454238 C220.413447,161.887843 239.476408,161.936834 255.850305,169.476012 C263.253397,172.829177 271.287929,175.001113 279.46399,175.893839 L279.46399,228.989248 C273.710264,228.189061 268.076293,226.5778 262.883242,224.220786 C242.176359,214.689306 217.659061,214.651202 196.968509,224.182682 C191.579494,226.59413 185.95641,228.134627 180.191797,228.92937 L180.191797,175.915613 Z M144.929129,364.346071 L163.268111,364.346071 L163.268111,148.763685 L144.929129,148.763685 L144.929129,364.346071 Z M180.191797,364.346071 L180.191797,351.254574 C188.356971,350.378179 196.326182,348.222572 204.006889,344.787756 C220.326352,337.156039 239.503625,337.1887 255.850305,344.820416 C265.800931,349.333036 276.894682,351.717267 287.928555,351.717267 C299.125731,351.717267 309.920092,349.398358 320.099343,344.787756 C336.337154,337.194143 355.721278,337.194143 371.953646,344.787756 C374.582832,346.012532 377.642051,345.811124 380.080716,344.254298 C382.524825,342.697471 384,340.008407 384,337.112491 L384,161.768087 C384,158.463913 382.078462,155.464572 379.079121,154.076492 C358.31236,144.517795 333.691637,144.539568 313.017415,154.065605 C305.146186,157.631065 296.703396,159.443734 287.928555,159.443734 C279.278913,159.443734 270.602054,157.582074 262.883242,154.076492 C242.19269,144.550455 217.648175,144.517795 196.968509,154.043832 C191.579494,156.45528 185.95641,158.00122 180.191797,158.795963 L180.191797,140.304564 C180.191797,135.628641 176.408599,131.84 171.727232,131.84 L136.464564,131.84 C131.788641,131.84 128,135.628641 128,140.304564 L128,364.346071 L128,375.053336 C128,381.2752 130.830594,381.2752 134.657339,381.2752 L174.209445,381.43306 C178.357354,381.43306 179.315401,379.516965 179.952285,375.69022 L180.191797,364.346071 Z"></path>
        </g>
    </g>
</svg>
