<?xml version="1.0" encoding="UTF-8" standalone="no"?>
<!-- Created with Inkscape (http://www.inkscape.org/) -->

<svg
   xmlns:dc="http://purl.org/dc/elements/1.1/"
   xmlns:cc="http://creativecommons.org/ns#"
   xmlns:rdf="http://www.w3.org/1999/02/22-rdf-syntax-ns#"
   xmlns:svg="http://www.w3.org/2000/svg"
   xmlns="http://www.w3.org/2000/svg"
   version="1.1"
   width="347.65967"
   height="177.76717"
   viewBox="0 0 347.65967 177.76716"
   id="Layer_1"
   xml:space="preserve"><metadata
   id="metadata15"><rdf:RDF><cc:Work
       rdf:about=""><dc:format>image/svg+xml</dc:format><dc:type
         rdf:resource="http://purl.org/dc/dcmitype/StillImage" /><dc:title></dc:title></cc:Work></rdf:RDF></metadata><defs
   id="defs13" />
<g
   transform="translate(-136.15601,284.5425)"
   id="text3"
   style="font-size:95.40000153px;font-family:Gibson" />
<g
   transform="translate(-200.89544,-156.729)"
   id="g5">
	<path
   d="m 138.34375,0 c 0,0 9.45575,44.67425 41.46875,84.53125 24.193,30.117 59.6605,55.4805 110.8125,51.6875 67.608,-5.017 38.28125,-50.90625 38.28125,-50.90625 0,0 27.5785,13.75925 20.6875,33.28125 -8.848,25.065 -64.60575,29.13075 -101.46875,22.21875 -20.844,-3.909 -54.84825,-17.6705 -70.53125,-16.8125 -15.683,0.861 -39.96875,12.8125 -39.96875,12.8125 0,0 103.07875,29.57275 129.09375,34.09375 69.011,11.994 107.64675,6.51425 143.96875,-3.09375 18.697,-4.946 36.33525,-14.115 47.78125,-13.125 15.879,1.375 19.5,10 19.5,10 0,0 19.97825,-20.06375 -6.09375,-45.84375 C 442.906,90.19775 383.3325,69.133 311.9375,48.375 240.5425,27.614 138.34375,0 138.34375,0 z m 308,122.625 c 0,0 21.80975,7.97825 11.71875,13.65625 -10.418,5.86 -11.71875,-13.65625 -11.71875,-13.65625 z"
   transform="translate(63.270435,156.729)"
   id="path7"
   style="fill:#e74c3c;fill-opacity:1" />
	
</g>
<text
   x="438.00677"
   y="32.606907"
   id="text2994"
   xml:space="preserve"
   style="font-size:40px;font-style:normal;font-weight:normal;line-height:125%;letter-spacing:0px;word-spacing:0px;fill:#000000;fill-opacity:1;stroke:none;font-family:Sans"><tspan
     x="438.00677"
     y="32.606907"
     id="tspan2996" /></text>




</svg>